<?xml version="1.0" encoding="utf-8"?>
<!-- Generator: Adobe Illustrator 22.1.0, SVG Export Plug-In . SVG Version: 6.00 Build 0)  -->
<svg version="1.1" id="层_1" xmlns="http://www.w3.org/2000/svg" xmlns:xlink="http://www.w3.org/1999/xlink" x="0px" y="0px"
	 viewBox="0 0 583 555" style="enable-background:new 0 0 583 555;" xml:space="preserve">
<style type="text/css">
	.st0{fill:#1280ff;}
</style>
<path class="st0" d="M347.2,8.5c94.8,0,171.6,76.6,171.6,171.1s-76.8,171-171.6,171H204.5c-7.2,0-14.3-0.4-21.2-1.3v-91h146.5
	c42.6,0,77.1-34.4,77.1-76.9s-34.5-76.9-77.1-76.9H183.3V9.8C190.3,8.9,347.2,8.5,347.2,8.5z"/>
<rect x="71.5" y="8.5" class="st0" width="96.4" height="96.1"/>
<rect x="191" y="131.5" class="st0" width="96.4" height="96.1"/>
<rect x="71.5" y="258.5" class="st0" width="96.4" height="92.1"/>
<g>
	<path class="st0" d="M27.1,471.9v52.7h17.3c7.6,0,12.9-1.7,15.8-5c1.8-2.1,3.3-5.1,4.4-9c1.1-3.9,1.7-7.9,1.7-12.3
		c0-4.8-0.7-9.3-2-13.3c-1.3-4-3-7-5.2-9c-3.1-2.8-8-4.2-14.7-4.2H27.1z M9.6,457.3h34.8c8.7,0,15.4,0.9,20.1,2.6
		c8.8,3.2,14.6,9.1,17.6,17.6c2.2,6.6,3.3,13.6,3.3,21c0,7.4-1.1,14.3-3.2,20.9c-2.1,6.7-5.7,11.7-10.6,14.9c-3.1,2-6.5,3.3-10.3,4
		c-3.7,0.7-9.4,1-17,1H9.6V457.3z"/>
	<path class="st0" d="M145.9,502.8v12.8h-34.6c0.3,3.9,1.6,6.7,3.8,8.4c2.2,1.6,5.8,2.5,10.8,2.5h20v12.8H124
		c-4.8,0-8.6-0.4-11.6-1.3c-3-0.9-5.8-2.3-8.4-4.2c-7.3-5.7-10.9-14-10.9-25.2c0-7.2,1.9-13.5,5.8-18.9c2.6-3.7,5.8-6.3,9.5-7.9
		c3.7-1.6,8.5-2.3,14.5-2.3h23.1v12.8H124c-4.5,0-7.7,0.8-9.5,2.3c-1.8,1.5-2.9,4.3-3.3,8.4H145.9z"/>
	<polygon class="st0" points="184.3,520.5 201,479.4 218.5,479.4 192.7,539.2 175,539.2 151.2,479.4 169.1,479.4 	"/>
	<path class="st0" d="M228,457.3h17.3v46.1c0.3,5.8,0.5,9.7,0.7,11.5c0.6,3.8,2.4,6.3,5.4,7.7c3,1.4,8.3,2,16,2h16.7v14.6h-18.5
		c-8.8,0-15.1-0.5-19-1.5c-9-2.6-14.7-8.4-17.2-17.2c-0.9-3.4-1.4-9.2-1.4-17.2V457.3z"/>
	<path class="st0" d="M294.4,473.2v-16h16.5v16H294.4z M294.4,479.4h16.5v59.8h-16.5V479.4z"/>
	<path class="st0" d="M325.1,479.4h31.7c4.8,0,8.4,0.4,10.9,1c2.5,0.7,4.8,1.9,6.8,3.8c4.2,3.9,6.3,9.9,6.3,18.2v36.9h-16.5v-38.7
		c0-2.9-0.7-5.1-2-6.4c-1.3-1.3-3.5-2-6.5-2h-14.2v47h-16.5V479.4z"/>
	<path class="st0" d="M411.7,457.3v45.8l22-23.7h18.4l-23.3,23.7h4.4c5.7,0,9.7,1.7,11.9,5c2.2,3.4,3.3,9.3,3.3,17.8v13.3H432v-14
		c0-3.8-0.6-6.3-1.8-7.6c-1.2-1.3-3.6-1.9-7.2-1.9h-11.2v23.5h-16.5v-81.9H411.7z"/>
	<path class="st0" d="M514.3,502.8v12.8h-34.6c0.3,3.9,1.6,6.7,3.8,8.4c2.2,1.6,5.8,2.5,10.8,2.5h20v12.8h-21.9
		c-4.8,0-8.6-0.4-11.6-1.3c-3-0.9-5.8-2.3-8.4-4.2c-7.3-5.7-10.9-14-10.9-25.2c0-7.2,1.9-13.5,5.8-18.9c2.6-3.7,5.8-6.3,9.5-7.9
		c3.7-1.6,8.5-2.3,14.5-2.3h23.1v12.8h-21.9c-4.5,0-7.7,0.8-9.5,2.3c-1.8,1.5-2.9,4.3-3.3,8.4H514.3z"/>
	<path class="st0" d="M526.8,479.4h24.3c5,0,8.8,0.4,11.6,1c2.7,0.7,5,1.9,6.8,3.5c1.8,1.6,3.1,3.7,3.8,6.1c0.7,2.5,1.1,6,1.1,10.6
		v5.8h-15.7v-3.2c0-4.3-0.7-7.2-2.2-8.7c-1.5-1.5-4.3-2.3-8.5-2.3h-4.7v47h-16.5V479.4z"/>
</g>
</svg>
